<svg width="60" height="297" viewBox="0 0 60 297" fill="none" xmlns="http://www.w3.org/2000/svg">
<path d="M14.8049 296.479C15.2847 296.691 15.8448 296.473 16.056 295.993L19.4976 288.175C19.7088 287.694 19.4911 287.134 19.0113 286.923C18.5314 286.712 17.9713 286.929 17.7601 287.409L14.7008 294.36L7.75071 291.3C7.27091 291.089 6.71073 291.307 6.49954 291.786C6.28835 292.267 6.5061 292.827 6.98591 293.037L14.8049 296.479ZM56.8947 1.35668C55.9745 1.5895 55.9744 1.5892 55.9744 1.58912C55.9743 1.58862 55.9744 1.58937 55.9744 1.58912C55.9747 1.59011 55.9753 1.59281 55.9759 1.59546C55.9773 1.60076 55.9793 1.60936 55.9823 1.62124C55.9881 1.64502 55.997 1.68194 56.0087 1.73189C56.0321 1.83177 56.0668 1.98372 56.1104 2.18666C56.1978 2.59253 56.3214 3.20235 56.4632 4.00753C56.7469 5.6179 57.1037 8.00959 57.3909 11.114C57.9655 17.3228 58.2618 26.3821 57.1389 37.7437C54.8935 60.4626 46.9719 92.4045 24.2275 129.186L25.0348 129.686L25.8421 130.185C48.7476 93.1425 56.756 60.92 59.0281 37.9305C60.1639 26.4378 59.8659 17.2569 59.2812 10.9391C58.989 7.78019 58.6251 5.33695 58.3329 3.67821C58.1868 2.84883 58.0587 2.21555 57.9663 1.78697C57.9202 1.57268 57.883 1.40956 57.857 1.29868C57.844 1.24324 57.8338 1.20087 57.8267 1.17168C57.8232 1.15709 57.8203 1.1458 57.8183 1.13782C57.8174 1.13384 57.8166 1.13068 57.8161 1.12835C57.8157 1.12718 57.8155 1.12606 57.8153 1.12548C57.8151 1.12456 57.8149 1.12386 56.8947 1.35668ZM25.0348 129.686L24.2275 129.186C1.25027 166.345 -1.20752 208.064 2.04787 240.428C3.67632 256.616 6.73653 270.488 9.39003 280.314C10.7169 285.227 11.9426 289.131 12.8377 291.81C13.2853 293.149 13.6502 294.182 13.904 294.882C14.0308 295.232 14.1298 295.499 14.1974 295.678C14.2313 295.768 14.2572 295.837 14.2748 295.883C14.2837 295.906 14.2905 295.923 14.295 295.935C14.2974 295.941 14.2992 295.946 14.3005 295.949C14.301 295.95 14.3016 295.952 14.3019 295.953C14.3023 295.954 14.3025 295.954 15.1872 295.611C16.072 295.267 16.072 295.267 16.0718 295.266C16.0716 295.266 16.0713 295.265 16.0708 295.264C16.0699 295.261 16.0684 295.258 16.0664 295.253C16.0624 295.242 16.0563 295.226 16.048 295.204C16.0317 295.162 16.0069 295.097 15.9745 295.01C15.9094 294.837 15.8129 294.578 15.6887 294.235C15.4402 293.549 15.0805 292.531 14.6383 291.208C13.7537 288.562 12.539 284.693 11.2227 279.819C8.5899 270.069 5.55265 256.301 3.93675 240.238C0.703457 208.094 3.16946 166.851 25.8421 130.185L25.0348 129.686Z" fill="#FF0000"/>
</svg>
