<svg width="20" height="23" viewBox="0 0 20 23" fill="none" xmlns="http://www.w3.org/2000/svg">
<path d="M2.3031 22.3481C1.72209 22.3481 1.23032 22.1468 0.827777 21.7443C0.425234 21.3417 0.223963 20.8499 0.223963 20.2689V4.87513C0.223963 4.29413 0.425234 3.80236 0.827777 3.39981C1.23032 2.99728 1.72209 2.79601 2.3031 2.79601H3.89544V1.24765C3.89544 0.99558 3.97988 0.785111 4.14875 0.616235C4.31763 0.447551 4.5281 0.363209 4.78017 0.363209C5.03243 0.363209 5.2429 0.447551 5.41158 0.616235C5.58047 0.785111 5.6649 0.99558 5.6649 1.24765V2.79601H14.3793V1.2258C14.3793 0.981017 14.4619 0.776006 14.6269 0.610772C14.7922 0.445729 14.9972 0.363209 15.242 0.363209C15.4868 0.363209 15.6916 0.445729 15.8567 0.610772C16.0219 0.776006 16.1045 0.981017 16.1045 1.2258V2.79601H17.6969C18.2779 2.79601 18.7696 2.99728 19.1723 3.39981C19.5748 3.80236 19.776 4.29413 19.776 4.87513V20.2689C19.776 20.8499 19.5748 21.3417 19.1723 21.7443C18.7696 22.1468 18.2779 22.3481 17.6969 22.3481H2.3031ZM2.3031 20.6229H17.6969C17.7855 20.6229 17.8665 20.586 17.9401 20.5122C18.014 20.4385 18.0508 20.3575 18.0508 20.2689V9.47563H1.94915V20.2689C1.94915 20.3575 1.98604 20.4385 2.05985 20.5122C2.13345 20.586 2.21454 20.6229 2.3031 20.6229ZM1.94915 7.75044H18.0508V4.87513C18.0508 4.78658 18.014 4.70549 17.9401 4.63189C17.8665 4.55808 17.7855 4.52119 17.6969 4.52119H2.3031C2.21454 4.52119 2.13345 4.55808 2.05985 4.63189C1.98604 4.70549 1.94915 4.78658 1.94915 4.87513V7.75044ZM10 13.8107C9.71845 13.8107 9.47842 13.7115 9.28002 13.5132C9.08182 13.3149 8.98272 13.0749 8.98272 12.7932C8.98272 12.5115 9.08182 12.2716 9.28002 12.0731C9.47842 11.875 9.71845 11.7759 10 11.7759C10.2815 11.7759 10.5216 11.875 10.72 12.0731C10.9182 12.2716 11.0173 12.5115 11.0173 12.7932C11.0173 13.0749 10.9182 13.3149 10.72 13.5132C10.5216 13.7115 10.2815 13.8107 10 13.8107ZM5.39951 13.8107C5.11793 13.8107 4.87793 13.7115 4.67954 13.5132C4.48133 13.3149 4.38223 13.0749 4.38223 12.7932C4.38223 12.5115 4.48133 12.2716 4.67954 12.0731C4.87793 11.875 5.11793 11.7759 5.39951 11.7759C5.6811 11.7759 5.9211 11.875 6.11948 12.0731C6.31769 12.2716 6.4168 12.5115 6.4168 12.7932C6.4168 13.0749 6.31769 13.3149 6.11948 13.5132C5.9211 13.7115 5.6811 13.8107 5.39951 13.8107ZM14.6005 13.8107C14.3189 13.8107 14.0789 13.7115 13.8805 13.5132C13.6823 13.3149 13.5832 13.0749 13.5832 12.7932C13.5832 12.5115 13.6823 12.2716 13.8805 12.0731C14.0789 11.875 14.3189 11.7759 14.6005 11.7759C14.8821 11.7759 15.1221 11.875 15.3204 12.0731C15.5187 12.2716 15.6178 12.5115 15.6178 12.7932C15.6178 13.0749 15.5187 13.3149 15.3204 13.5132C15.1221 13.7115 14.8821 13.8107 14.6005 13.8107ZM10 18.3226C9.71845 18.3226 9.47842 18.2235 9.28002 18.0251C9.08182 17.8268 8.98272 17.587 8.98272 17.3053C8.98272 17.0236 9.08182 16.7836 9.28002 16.5854C9.47842 16.387 9.71845 16.2878 10 16.2878C10.2815 16.2878 10.5216 16.387 10.72 16.5854C10.9182 16.7836 11.0173 17.0236 11.0173 17.3053C11.0173 17.587 10.9182 17.8268 10.72 18.0251C10.5216 18.2235 10.2815 18.3226 10 18.3226ZM5.39951 18.3226C5.11793 18.3226 4.87793 18.2235 4.67954 18.0251C4.48133 17.8268 4.38223 17.587 4.38223 17.3053C4.38223 17.0236 4.48133 16.7836 4.67954 16.5854C4.87793 16.387 5.11793 16.2878 5.39951 16.2878C5.6811 16.2878 5.9211 16.387 6.11948 16.5854C6.31769 16.7836 6.4168 17.0236 6.4168 17.3053C6.4168 17.587 6.31769 17.8268 6.11948 18.0251C5.9211 18.2235 5.6811 18.3226 5.39951 18.3226ZM14.6005 18.3226C14.3189 18.3226 14.0789 18.2235 13.8805 18.0251C13.6823 17.8268 13.5832 17.587 13.5832 17.3053C13.5832 17.0236 13.6823 16.7836 13.8805 16.5854C14.0789 16.387 14.3189 16.2878 14.6005 16.2878C14.8821 16.2878 15.1221 16.387 15.3204 16.5854C15.5187 16.7836 15.6178 17.0236 15.6178 17.3053C15.6178 17.587 15.5187 17.8268 15.3204 18.0251C15.1221 18.2235 14.8821 18.3226 14.6005 18.3226Z" fill="#F10657"/>
</svg>
