<svg width="41" height="41" viewBox="0 0 41 41" fill="none" xmlns="http://www.w3.org/2000/svg">
<g clip-path="url(#clip0_12_308)">
<g clip-path="url(#clip1_12_308)">
<path d="M32.5306 3.59221C30.4411 5.29293 25.8643 9.86365 22.3819 13.7965L16.2131 20.9183L12.8302 18.1546C9.04934 15.0721 7.95488 14.8595 6.36293 16.9854C5.36796 18.2609 6.16394 20.1742 10.7408 27.0834C13.8252 31.8666 16.5116 35.6933 16.7106 35.6933C16.9095 35.6933 19.994 30.91 23.6753 25.0638C27.2572 19.2175 32.7295 11.6706 35.6149 8.16289C38.5998 4.76146 40.7888 1.6789 40.3907 1.25373C39.0973 -0.128108 36.3114 0.722251 32.5306 3.59221Z" fill="#0367FD"/>
<path d="M11.8352 6.99378C5.66642 9.01341 1.28857 15.8163 1.28857 23.5758C1.28857 29.8472 3.87549 34.5241 9.2483 37.713C19.2975 43.7718 32.1326 35.5871 32.1326 23.1506C32.1326 17.3044 30.8391 18.0485 30.5406 24.1073C30.1426 32.1857 24.1728 37.8193 16.0141 37.8193C12.2332 37.8193 10.6412 37.1816 7.85535 34.6304C-2.79078 24.6388 4.07448 6.6749 17.9045 8.37562C22.3818 8.90711 23.7748 7.73785 19.9939 6.56861C17.1086 5.82454 15.4171 5.93084 11.8352 6.99378Z" fill="#0367FD"/>
</g>
</g>
<defs>
<clipPath id="clip0_12_308">
<rect width="40" height="40" fill="white" transform="translate(0.721191 0.241699)"/>
</clipPath>
<clipPath id="clip1_12_308">
<rect width="40" height="40" fill="white" transform="translate(0.721191 0.241699)"/>
</clipPath>
</defs>
</svg>
