<svg width="20" height="20" viewBox="0 0 20 20" fill="none" xmlns="http://www.w3.org/2000/svg">
<path d="M19.8684 10C19.8684 10.8421 18.8339 11.5362 18.6266 12.3125C18.4128 13.1151 18.9539 14.2336 18.5477 14.9359C18.1348 15.6497 16.8931 15.7352 16.3142 16.3142C15.7352 16.8931 15.6497 18.1349 14.9358 18.5477C14.2336 18.954 13.1151 18.4129 12.3125 18.6266C11.5362 18.8339 10.8421 19.8684 10 19.8684C9.15789 19.8684 8.46379 18.8339 7.68747 18.6266C6.88484 18.4129 5.76647 18.954 5.06415 18.5477C4.35033 18.1349 4.2648 16.8931 3.68586 16.3142C3.10691 15.7352 1.86513 15.6497 1.4523 14.9359C1.04605 14.2336 1.58717 13.1151 1.37336 12.3125C1.16612 11.5362 0.131578 10.8421 0.131578 10C0.131578 9.15791 1.16612 8.4638 1.37336 7.68749C1.58717 6.88486 1.04605 5.76649 1.4523 5.06416C1.86513 4.35034 3.10691 4.26482 3.68586 3.68587C4.2648 3.10692 4.35033 1.86514 5.06415 1.45231C5.76647 1.04607 6.88484 1.58718 7.68747 1.37337C8.46379 1.16613 9.15789 0.131592 10 0.131592C10.8421 0.131592 11.5362 1.16613 12.3125 1.37337C13.1151 1.58718 14.2336 1.04607 14.9358 1.45231C15.6497 1.86514 15.7352 3.10692 16.3142 3.68587C16.8931 4.26482 18.1348 4.35034 18.5477 5.06416C18.9539 5.76649 18.4128 6.88486 18.6266 7.68749C18.8339 8.4638 19.8684 9.15791 19.8684 10Z" fill="#990C3D"/>
<path d="M12.852 7.05919L9.09542 10.8158L7.14805 8.87003C6.94495 8.66703 6.66953 8.55303 6.38242 8.55303C6.09526 8.55303 5.81989 8.66703 5.61679 8.87003C5.41379 9.07313 5.29979 9.3485 5.29979 9.63566C5.29979 9.92282 5.41379 10.1982 5.61679 10.4013L8.34868 13.1332C8.54637 13.3307 8.81437 13.4416 9.09374 13.4416C9.37316 13.4416 9.64116 13.3307 9.83884 13.1332L14.3816 8.59045C14.5846 8.38735 14.6986 8.11192 14.6986 7.82482C14.6986 7.53766 14.5846 7.26229 14.3816 7.05919C14.2812 6.95866 14.1619 6.87898 14.0307 6.82456C13.8995 6.77019 13.7588 6.74219 13.6168 6.74219C13.4747 6.74219 13.3341 6.77019 13.2028 6.82456C13.0716 6.87898 12.9524 6.95866 12.852 7.05919Z" fill="#FFFCEE"/>
</svg>
