<svg width="35" height="36" viewBox="0 0 35 36" fill="none" xmlns="http://www.w3.org/2000/svg">
<g clip-path="url(#clip0_9978_110)">
<g clip-path="url(#clip1_9978_110)">
<g clip-path="url(#clip2_9978_110)">
<path d="M17.5 34.9961C26.9502 34.9961 34.6111 27.3352 34.6111 17.885C34.6111 8.43477 26.9502 0.773865 17.5 0.773865C8.04982 0.773865 0.388916 8.43477 0.388916 17.885C0.388916 27.3352 8.04982 34.9961 17.5 34.9961Z" stroke="black" stroke-width="0.777778" stroke-dasharray="3.89 3.89"/>
<path d="M15.1561 22.6473L24.7672 12.7698C24.9327 12.5998 25.1292 12.5129 25.3567 12.5093C25.5842 12.5056 25.7842 12.5924 25.9568 12.7698C26.1294 12.9472 26.2157 13.1509 26.2157 13.3811C26.2157 13.6112 26.1294 13.815 25.9568 13.9924L15.86 24.3691C15.6589 24.5757 15.4243 24.6791 15.1561 24.6791C14.8879 24.6791 14.6534 24.5757 14.4522 24.3691L9.80718 19.5952C9.64166 19.4252 9.56 19.2232 9.56218 18.9894C9.56428 18.7556 9.6517 18.55 9.82421 18.3726C9.99688 18.1953 10.1951 18.1065 10.4191 18.1065C10.643 18.1065 10.8412 18.1953 11.0138 18.3726L15.1561 22.6473Z" fill="black"/>
</g>
</g>
</g>
<defs>
<clipPath id="clip0_9978_110">
<rect width="35" height="35.77" fill="white"/>
</clipPath>
<clipPath id="clip1_9978_110">
<rect width="35" height="35.77" fill="white"/>
</clipPath>
<clipPath id="clip2_9978_110">
<rect width="35" height="35.7778" fill="white" transform="translate(0 -0.00390625)"/>
</clipPath>
</defs>
</svg>
